<svg id="Layer_1" data-name="Layer 1" xmlns="http://www.w3.org/2000/svg" viewBox="0 0 64 64"><defs><style>.cls-1{fill:#231f20;}</style></defs><g id="outer"><path class="cls-1" d="M41.12,64,38.69,50.71h-14L22.45,64H10.78L23.67,0H39.4L52.89,64ZM26.21,41.88H37.06L31.48,11.24Z"/><polygon class="cls-1" points="58.42 -0.02 42.29 -0.02 43.33 5.03 58.42 5.03 58.42 58.95 54.46 58.95 55.51 64 63.77 64 63.77 63.94 63.77 58.95 63.77 5.03 63.77 -0.02 58.42 -0.02"/><polygon class="cls-1" points="37.41 58.95 38.35 64 25.36 64 26.19 58.95 37.41 58.95"/><polygon class="cls-1" points="19.9 5.05 20.94 0 5.58 -0.01 5.58 -0.02 0.23 -0.02 0.23 5.03 0.23 58.9 0.23 63.94 5.58 63.94 8.04 63.94 9.03 58.9 5.58 58.9 5.58 5.03 19.9 5.05"/></g></svg>