<?xml version="1.0" standalone="no"?>
<!DOCTYPE svg PUBLIC "-//W3C//DTD SVG 20010904//EN"
 "http://www.w3.org/TR/2001/REC-SVG-20010904/DTD/svg10.dtd">
<svg version="1.0" xmlns="http://www.w3.org/2000/svg"
 width="512.000000pt" height="512.000000pt" viewBox="0 0 512.000000 512.000000"
 preserveAspectRatio="xMidYMid meet">
<metadata>
Created by potrace 1.11, written by Peter Selinger 2001-2013
</metadata>
<g transform="translate(0.000000,512.000000) scale(0.100000,-0.100000)"
fill="#000000" stroke="none">
<path d="M2070 4837 c0 -2 -4 -28 -10 -58 -5 -30 -12 -70 -15 -89 -3 -19 -10
-55 -15 -80 -5 -25 -34 -187 -64 -360 -52 -297 -59 -339 -70 -400 -10 -52 -56
-316 -61 -345 -3 -16 -7 -41 -10 -55 -3 -14 -7 -41 -10 -60 -3 -19 -13 -73
-21 -120 -9 -47 -18 -98 -20 -114 -2 -15 -5 -35 -8 -45 -3 -9 -8 -34 -11 -56
-3 -23 -7 -52 -10 -65 -6 -30 -22 -124 -29 -165 -8 -49 -46 -266 -56 -320 -5
-27 -12 -63 -15 -80 -2 -16 -19 -109 -36 -205 -17 -96 -32 -184 -34 -195 -2
-18 -21 -125 -75 -425 -11 -63 -22 -128 -25 -145 -3 -16 -13 -68 -21 -115 -9
-47 -17 -97 -19 -112 -2 -15 -13 -78 -24 -140 -11 -62 -23 -129 -26 -148 -3
-19 -8 -42 -10 -50 -2 -8 -7 -35 -10 -60 -4 -25 -11 -67 -16 -95 -18 -95 -71
-390 -76 -427 l-5 -38 326 0 c179 0 326 4 326 9 0 4 6 46 14 92 8 46 18 104
21 129 3 25 8 56 10 70 2 14 11 70 20 125 17 108 44 274 51 315 2 14 7 48 10
75 4 28 8 53 10 56 1 3 6 28 10 55 3 27 9 67 13 89 l7 40 477 3 c262 1 477 -1
478 -5 0 -5 2 -15 4 -23 1 -8 5 -31 9 -50 3 -19 8 -46 10 -60 13 -68 72 -423
81 -485 4 -22 8 -47 10 -55 2 -8 7 -31 10 -50 3 -19 15 -87 26 -150 10 -63 22
-130 25 -147 l5 -33 329 0 c182 0 330 3 330 8 0 4 -5 25 -10 47 -5 22 -11 60
-15 85 -3 25 -8 52 -10 60 -4 12 -61 314 -79 410 -2 14 -14 77 -26 140 -12 63
-24 129 -27 145 -2 17 -6 37 -9 45 -3 8 -8 33 -10 55 -3 22 -10 56 -14 75 -5
19 -12 53 -15 75 -4 22 -8 48 -11 58 -3 10 -7 31 -9 48 -3 17 -7 38 -9 48 -3
9 -8 32 -11 51 -4 29 -30 166 -60 325 -3 17 -10 55 -15 85 -6 30 -12 66 -15
80 -3 14 -14 75 -26 135 -11 61 -32 169 -46 240 -14 72 -27 141 -29 155 -3 14
-13 70 -24 125 -10 55 -22 116 -25 135 -3 19 -12 67 -20 105 -8 39 -17 88 -21
110 -3 22 -10 59 -15 83 -5 23 -12 59 -15 78 -3 20 -8 46 -10 58 -3 11 -9 46
-15 76 -6 30 -23 123 -39 205 -16 83 -32 166 -35 185 -3 19 -8 46 -10 60 -6
30 -9 42 -35 185 -12 61 -25 130 -30 155 -6 25 -12 59 -15 75 -2 17 -18 102
-35 190 -50 262 -70 367 -70 371 0 2 -214 4 -475 4 -261 0 -475 -1 -475 -3z
m484 -642 c3 -22 8 -51 10 -65 6 -31 53 -303 60 -350 3 -19 8 -46 10 -60 3
-14 8 -38 10 -55 9 -47 98 -568 101 -590 2 -11 6 -33 9 -50 3 -16 8 -47 11
-69 4 -21 9 -48 11 -60 9 -43 84 -482 89 -516 4 -29 15 -93 21 -124 2 -11 7
-37 10 -56 2 -19 7 -46 10 -60 2 -14 6 -36 9 -50 3 -13 7 -42 10 -65 3 -22 8
-47 10 -55 2 -8 6 -36 10 -62 l5 -47 -391 0 -392 0 6 47 c4 26 14 92 22 147 9
55 18 116 21 135 2 19 6 46 9 60 5 29 9 50 30 185 8 55 22 143 31 195 18 113
21 131 29 190 7 52 83 540 91 585 3 17 7 46 10 65 2 19 13 87 24 150 10 63 22
135 25 160 3 25 10 71 15 103 6 31 14 83 20 115 5 31 12 77 15 102 10 82 24
145 30 138 1 -2 5 -21 9 -43z"/>
<path d="M784 4771 c-2 -2 -4 -1012 -4 -2243 l0 -2238 220 0 220 0 1 33 c1 35
1 141 0 230 l-1 57 -59 0 -60 0 1 1920 0 1920 26 1 c15 0 192 1 393 1 l366 1
-1 161 -1 161 -548 0 c-302 0 -551 -2 -553 -4z"/>
<path d="M3184 4771 c-2 -2 -4 -75 -4 -161 l0 -157 398 -1 c218 0 407 -1 419
-1 l22 -1 -1 -1920 0 -1920 -54 0 -54 0 0 -160 0 -160 215 0 215 0 0 2243 0
2242 -576 0 c-317 0 -578 -2 -580 -4z"/>
<path d="M2077 603 c-2 -5 -4 -77 -4 -160 l0 -153 483 0 484 0 0 160 0 160
-479 0 c-264 0 -482 -3 -484 -7z"/>
</g>
</svg>
