<svg
   xmlns:dc="http://purl.org/dc/elements/1.1/"
   xmlns:cc="http://creativecommons.org/ns#"
   xmlns:rdf="http://www.w3.org/1999/02/22-rdf-syntax-ns#"
   xmlns:svg="http://www.w3.org/2000/svg"
   xmlns="http://www.w3.org/2000/svg"
   viewBox="0 0 14.3375 24.950001"
   height="24.950001"
   width="14.3375"
   xml:space="preserve"
   version="1.1"
   id="svg2"><metadata
     id="metadata8"><rdf:RDF><cc:Work
         rdf:about=""><dc:format>image/svg+xml</dc:format><dc:type
           rdf:resource="http://purl.org/dc/dcmitype/StillImage" /></cc:Work></rdf:RDF></metadata><defs
     id="defs6" /><g
     transform="matrix(1.25,0,0,-1.25,0,24.95)"
     id="g10"><g
       transform="scale(0.1,0.1)"
       id="g12"><path
         id="path14"
         style="fill:#9c9a9a;fill-opacity:1;fill-rule:nonzero;stroke:none"
         d="m 78.6563,-0.00390625 c -42.3633,0 -58.461,31.24610625 -58.461,53.31640625 l 0,65.2145 -20.1953,0 0,25.782 c 30.2734,10.91 37.5586,38.222 39.2695,53.781 0.1172,1.07 0.9532,1.496 1.4336,1.496 l 29.2383,0 0,-50.844 39.9296,0 0,-30.215 -40.078,0 0,-62.1286 c 0.1367,-8.3086 3.1211,-19.6914 18.3593,-19.6914 0.2813,0 0.5665,0.0039 0.8516,0.0118 5.293,0.1367 12.3911,1.6796 16.1011,3.4453 l 9.602,-28.4649 C 111.105,6.40625 94.8164,0.265625 80.1484,0.0117188 79.6445,0 79.1484,-0.00390625 78.6563,-0.00390625" /></g></g></svg>
