<svg xmlns="http://www.w3.org/2000/svg" viewBox="0 0 95.77 96.1">
  <title>Andrew Leedham's Logo</title>
  <defs>
  	<style>
      path, polygon {
        fill: black;
      }
      @media (prefers-color-scheme: dark) {
        path, polygon {
          fill: white;
        }
      }
	</style>
  </defs>
  <path d="M61.47,96.1,57.82,76.16h-21L33.46,96.1H15.95L35.28,0h23.6L79.13,96.1ZM39.09,62.91H55.38L47,16.93Z"/>
  <polygon points="87.75 0 63.13 0 64.72 7.58 87.75 7.58 87.75 88.53 81.8 88.53 83.37 96.1 95.77 96.1 95.77 96.02 95.77 88.53 95.77 7.58 95.77 0 87.75 0"/>
  <polygon points="55.81 88.53 57.22 96.1 37.72 96.1 38.97 88.53 55.81 88.53"/>
  <polygon points="29.52 7.61 31.08 0.03 8.02 0.01 8.02 0 0 0 0 7.58 0 88.44 0 96.02 8.02 96.02 11.72 96.02 13.21 88.44 8.02 88.44 8.02 7.59 29.52 7.61"/>
</svg>
