<svg xmlns="http://www.w3.org/2000/svg" viewBox="0 0 19.39 18.91">
  <path d="M9.7 0A9.7 9.7 0 0 0 6.62 18.9c.48.09.66-.2.66-.47l-.01-1.65c-2.7.59-3.27-1.3-3.27-1.3a2.57 2.57 0 0 0-1.07-1.41c-.88-.6.06-.6.06-.6a2.03 2.03 0 0 1 1.49 1 2.07 2.07 0 0 0 2.82.81 2.07 2.07 0 0 1 .62-1.3C5.76 13.73 3.5 12.9 3.5 9.18a3.74 3.74 0 0 1 1-2.6 3.45 3.45 0 0 1 .09-2.56s.8-.26 2.66 1a9.14 9.14 0 0 1 4.85 0c1.84-1.26 2.65-1 2.65-1a3.54 3.54 0 0 1 .1 2.56 3.75 3.75 0 0 1 1 2.6c0 3.73-2.27 4.55-4.43 4.79a2.32 2.32 0 0 1 .66 1.79l-.02 2.65c0 .26.17.56.67.46A9.68 9.68 0 0 0 9.7 0"/>
</svg>
