<svg xmlns="http://www.w3.org/2000/svg" viewBox="0 0 19.13 19.13">
  <path d="M5.52 0h8.09a5.52 5.52 0 0 1 5.52 5.52v8.09a5.52 5.52 0 0 1-5.52 5.52H5.52A5.52 5.52 0 0 1 0 13.6V5.52A5.52 5.52 0 0 1 5.52 0zm-.17 1.89A3.45 3.45 0 0 0 1.9 5.35v8.48a3.45 3.45 0 0 0 3.46 3.46h8.48a3.45 3.45 0 0 0 3.46-3.47V5.35a3.45 3.45 0 0 0-3.46-3.46zm4.21 2.87a4.84 4.84 0 1 1-3.39 1.41 4.77 4.77 0 0 1 3.4-1.41zm0 1.94a2.9 2.9 0 0 0-2.02.86 2.75 2.75 0 0 0-.8 2 2.76 2.76 0 0 0 2.82 2.84 2.76 2.76 0 0 0 2.84-2.84 2.75 2.75 0 0 0-.81-2.02 2.9 2.9 0 0 0-2.02-.85zm5.04-3.37a1.3 1.3 0 0 1 .83.39 1.13 1.13 0 0 1 .34.83 1.21 1.21 0 1 1-2.33 0 1.13 1.13 0 0 1 .34-.83 1.3 1.3 0 0 1 .82-.4z"/>
</svg>
