<svg xmlns="http://www.w3.org/2000/svg" viewBox="0 0 19.39 19.4">
  <path d="M17.22 0a2.1 2.1 0 0 1 1.54.63 2.1 2.1 0 0 1 .62 1.54v15.05a2.15 2.15 0 0 1-2.17 2.18H2.18a2.1 2.1 0 0 1-1.54-.63A2.1 2.1 0 0 1 0 17.22V2.18A2.1 2.1 0 0 1 .63.63 2.1 2.1 0 0 1 2.18 0zM4.2 6.02a1.9 1.9 0 0 0 1.26-.57 1.74 1.74 0 0 0 .5-1.3 1.74 1.74 0 0 0-.5-1.26 1.72 1.72 0 0 0-1.27-.5 1.8 1.8 0 0 0-1.3.5 1.7 1.7 0 0 0-.52 1.29 1.7 1.7 0 0 0 .54 1.27 2 2 0 0 0 1.3.57zm1.47 10.71V7.68H2.72v9.04zm11.07 0v-5.72a3.54 3.54 0 0 0-3.54-3.53 2.83 2.83 0 0 0-1.36.38 2.91 2.91 0 0 0-1.09 1.03V7.68H7.68v9.04h3.04v-5.35a1.36 1.36 0 0 1 .43-1.04 1.52 1.52 0 0 1 2.13 0 1.36 1.36 0 0 1 .43 1.04v5.35z"/>
</svg>
