<svg id="github" xmlns="http://www.w3.org/2000/svg" viewBox="0 0 32 32">
  <defs>
    <style>
      .cls-1 {
        fill-rule: evenodd;
      }
    </style>
  </defs>
  <title>github</title>
  <path d="M16,4A12.16,12.16,0,0,0,4,16.3,12.28,12.28,0,0,0,12.21,28c.6.11.82-.27.82-.59s0-1.07,0-2.09c-3.34.74-4-1.65-4-1.65a3.24,3.24,0,0,0-1.33-1.8c-1.09-.76.08-.75.08-.75a2.53,2.53,0,0,1,1.84,1.27,2.52,2.52,0,0,0,3.49,1,2.65,2.65,0,0,1,.76-1.64c-2.66-.31-5.47-1.37-5.47-6.08a4.82,4.82,0,0,1,1.24-3.3A4.53,4.53,0,0,1,9.7,9.1s1-.33,3.3,1.26a11.1,11.1,0,0,1,6,0C21.3,8.77,22.3,9.1,22.3,9.1a4.52,4.52,0,0,1,.12,3.26,4.82,4.82,0,0,1,1.23,3.3c0,4.73-2.81,5.77-5.48,6.07A3,3,0,0,1,19,24c0,1.64,0,3,0,3.38s.22.71.83.59A12.28,12.28,0,0,0,28,16.3,12.16,12.16,0,0,0,16,4Z"/>
</svg>
