<svg id="instagram" xmlns="http://www.w3.org/2000/svg" viewBox="0 0 32 32">
  <defs><linearGradient id="b"><stop offset="0" stop-color="#3771c8"/><stop stop-color="#3771c8" offset=".128"/><stop offset="1" stop-color="#60f" stop-opacity="0"/></linearGradient><linearGradient id="a"><stop offset="0" stop-color="#fd5"/><stop offset=".1" stop-color="#fd5"/><stop offset=".5" stop-color="#ff543e"/><stop offset="1" stop-color="#c837ab"/></linearGradient><radialGradient id="c" cx="158.429" cy="578.088" r="65" xlink:href="#a" gradientUnits="userSpaceOnUse" gradientTransform="matrix(0 -1.98198 1.8439 0 -1031.402 454.004)" fx="158.429" fy="578.088"/><radialGradient id="d" cx="147.694" cy="473.455" r="65" xlink:href="#b" gradientUnits="userSpaceOnUse" gradientTransform="matrix(.17394 .86872 -3.5818 .71718 1648.348 -458.493)" fx="147.694" fy="473.455"/></defs>
  <path d="M16,6.23c3.19,0,3.57,0,4.83.07a6.62,6.62,0,0,1,2.22.41A4,4,0,0,1,25.36,9a6.62,6.62,0,0,1,.41,2.22c.06,1.26.07,1.64.07,4.83s0,3.57-.07,4.83a6.62,6.62,0,0,1-.41,2.22,4,4,0,0,1-2.27,2.27,6.62,6.62,0,0,1-2.22.41c-1.26.06-1.64.07-4.83.07s-3.57,0-4.83-.07A6.62,6.62,0,0,1,9,25.36a4,4,0,0,1-2.27-2.27,6.62,6.62,0,0,1-.41-2.22c-.06-1.26-.07-1.64-.07-4.83s0-3.57.07-4.83A6.62,6.62,0,0,1,6.72,9,4,4,0,0,1,9,6.72a6.62,6.62,0,0,1,2.22-.41c1.26-.06,1.64-.07,4.83-.07m0-2.16c-3.25,0-3.66,0-4.93.07a8.78,8.78,0,0,0-2.9.56,6.12,6.12,0,0,0-3.5,3.5,8.78,8.78,0,0,0-.56,2.9c-.06,1.28-.07,1.68-.07,4.93s0,3.66.07,4.93a8.78,8.78,0,0,0,.56,2.9,6.12,6.12,0,0,0,3.5,3.5,8.78,8.78,0,0,0,2.9.56C12.38,28,12.79,28,16,28s3.66,0,4.93-.07a8.78,8.78,0,0,0,2.9-.56,6.12,6.12,0,0,0,3.5-3.5,8.78,8.78,0,0,0,.56-2.9C28,19.7,28,19.29,28,16s0-3.66-.07-4.93a8.78,8.78,0,0,0-.56-2.9,6.12,6.12,0,0,0-3.5-3.5A8.78,8.78,0,0,0,21,4.15c-1.28-.06-1.68-.07-4.93-.07Z"/>
  <path d="M16,9.9A6.14,6.14,0,1,0,22.18,16,6.14,6.14,0,0,0,16,9.9ZM16,20a4,4,0,1,1,4-4A4,4,0,0,1,16,20Z"/>
  <circle cx="22.42" cy="9.66" r="1.44"/>
</svg>
