<svg xmlns="http://www.w3.org/2000/svg" viewBox="0 0 362.19 108.18">
  <defs>
    <style>
      .cls-1 {
        fill: #fff;
      }
    </style>
  </defs>
  <title>al_logo-large-white</title>
  <g id="Layer_2" data-name="Layer 2">
    <g id="Layer_1-2" data-name="Layer 1">
      <g>
        <polygon class="cls-1" points="172.43 12.16 171.02 19.74 354.17 19.74 354.17 100.68 8.02 100.6 8.02 19.74 29.52 19.77 31.08 12.19 0 12.16 0 108.18 362.19 108.18 362.19 12.16 172.43 12.16"/>
        <g>
          <path class="cls-1" d="M47.09,37.74l-1.35-7.39H38l-1.24,7.39H30.23L37.39,2.14h8.74l7.5,35.59ZM38.8,25.44h6l-3.1-17Z"/>
          <path class="cls-1" d="M66.83,10h1.69q5.81,0,5.81,5.58V37.74H67.9V16.53a1.64,1.64,0,0,0-.34-1.21A1.87,1.87,0,0,0,66.33,15H64.63q-1.75,0-1.75,1.86V37.74H56.51V10h6.32v2.54Q63.62,10,66.83,10Z"/>
          <path class="cls-1" d="M90,0h6.43V37.74H90.13V35q-.68,2.76-4,2.76H84.37q-5.75,0-5.75-5.58V15.57q0-5.58,5.75-5.58h1.75q3,0,3.89,2.37ZM86.57,32.77h1.69q1.75,0,1.75-1.86v-14a2.2,2.2,0,0,0-.4-1.49,1.8,1.8,0,0,0-1.35-.42H86.57a1.87,1.87,0,0,0-1.24.31A1.64,1.64,0,0,0,85,16.47V31.25a1.64,1.64,0,0,0,.34,1.21A1.86,1.86,0,0,0,86.57,32.77Z"/>
          <path class="cls-1" d="M112.52,9.93h1v5.53h-2.37q-3.55,0-3.55,4.06V37.74h-6.37V10h6.32v3.55a4.94,4.94,0,0,1,1.75-2.65A5.06,5.06,0,0,1,112.52,9.93Z"/>
          <path class="cls-1" d="M122.11,10h6q6.09,0,6.09,5.58v10.1h-12v5.7a1.74,1.74,0,0,0,.31,1.21,1.85,1.85,0,0,0,1.27.31h2.59a1.86,1.86,0,0,0,1.24-.31,1.64,1.64,0,0,0,.34-1.21V29.33h6.2v2.82q0,5.58-6.15,5.58h-5.87q-6.15,0-6.15-5.58V15.62Q116,10,122.11,10Zm.06,11.56H128V16.3a1.64,1.64,0,0,0-.34-1.21,1.87,1.87,0,0,0-1.24-.31h-2.71a1.87,1.87,0,0,0-1.24.31,1.64,1.64,0,0,0-.34,1.21Z"/>
          <path class="cls-1" d="M162.55,10h6l-5.42,27.7h-7.5l-3.33-19.57L149,37.74h-7.5L136.21,10h6l3.21,21.6L149,10h6.71l3.38,21.55Z"/>
        </g>
        <path class="cls-1" d="M27.9,85.94H47.73V96.32H14.33V24H27.9Z"/>
        <path class="cls-1" d="M65.43,40.5H77.94q12.75,0,12.75,11.68V73.31H65.55V83.1a3.64,3.64,0,0,0,.65,2.54,3.87,3.87,0,0,0,2.66.65h5.43a3.9,3.9,0,0,0,2.6-.65,3.43,3.43,0,0,0,.71-2.54V78.74h13v5.9q0,11.68-12.86,11.68H65.43q-12.86,0-12.86-11.68V52.18Q52.57,40.5,65.43,40.5Zm.12,24.19H77.82V53.6a3.43,3.43,0,0,0-.71-2.54,3.91,3.91,0,0,0-2.6-.65H68.85a3.9,3.9,0,0,0-2.6.65,3.43,3.43,0,0,0-.71,2.54Z"/>
        <path class="cls-1" d="M111.69,40.5H124.2q12.75,0,12.75,11.68V73.31H111.81V83.1a3.64,3.64,0,0,0,.65,2.54,3.87,3.87,0,0,0,2.66.65h5.43a3.9,3.9,0,0,0,2.6-.65,3.43,3.43,0,0,0,.71-2.54V78.74h13v5.9q0,11.68-12.86,11.68H111.69q-12.86,0-12.86-11.68V52.18Q98.83,40.5,111.69,40.5Zm.12,24.19h12.27V53.6a3.43,3.43,0,0,0-.71-2.54,3.91,3.91,0,0,0-2.6-.65h-5.67a3.9,3.9,0,0,0-2.6.65,3.43,3.43,0,0,0-.71,2.54Z"/>
        <path class="cls-1" d="M168.7,24h13.45V96.32H168.93V90.54q-1.42,5.78-8.38,5.78h-3.66q-12,0-12-11.68V52.07q0-11.68,12-11.68h3.66q6.37,0,8.14,5Zm-7.2,62H165q3.66,0,3.66-3.89V54.78a4.6,4.6,0,0,0-.83-3.13,3.76,3.76,0,0,0-2.83-.89H161.5a3.9,3.9,0,0,0-2.6.65,3.43,3.43,0,0,0-.71,2.54v28.8a3.43,3.43,0,0,0,.71,2.54A3.9,3.9,0,0,0,161.5,85.94Z"/>
        <path class="cls-1" d="M213.78,40.5h3.54q12.15,0,12.16,11.68V96.32H216V54.07a3.43,3.43,0,0,0-.71-2.54,3.91,3.91,0,0,0-2.6-.65h-3.54q-3.66,0-3.66,3.9V96.32H192.18V24h13.34V45.46Q207.29,40.5,213.78,40.5Z"/>
        <path class="cls-1" d="M262.52,40.5h13.22V96.32H262.28v-5q-1.77,5-8.14,5h-3.66q-12,0-12-11.68V52.18q0-11.68,12-11.68h3.66q7,0,8.38,5.66Zm-7.43,45.44h3.54q3.66,0,3.66-3.89V54.78q0-3.9-3.66-3.9h-3.54a3.9,3.9,0,0,0-2.6.65,3.43,3.43,0,0,0-.71,2.54V82.75a3.43,3.43,0,0,0,.71,2.54A3.9,3.9,0,0,0,255.08,85.94Z"/>
        <path class="cls-1" d="M331.2,40.5h3.66q12,0,12,11.68V96.32H333.56V54.07a3.43,3.43,0,0,0-.71-2.54,3.91,3.91,0,0,0-2.6-.65h-3.54q-3.66,0-3.66,3.9V96.32H309.61V54.07a3.43,3.43,0,0,0-.71-2.54,3.91,3.91,0,0,0-2.6-.65h-3.54q-3.66,0-3.66,3.9V96.32H285.77V40.5H299v5.31q1.65-5.31,8.38-5.31h3.54q8.73,0,11.09,5.9Q323.65,40.5,331.2,40.5Z"/>
      </g>
    </g>
  </g>
</svg>
