<svg class="logo--large" xmlns="http://www.w3.org/2000/svg" viewBox="0 0 362.19 108.18" height="48px">
  <title>Andrew Leedham</title>
  <path
    d="M172.43 12.16l-1.41 7.58h183.15v80.94L8.02 100.6V19.74l21.5.03 1.56-7.58L0 12.16v96.02h362.19V12.16H172.43z"
    fill="currentColor"
  ></path>
  <path
    d="M47.09 37.74l-1.35-7.39H38l-1.24 7.39h-6.53l7.16-35.6h8.74l7.5 35.59zm-8.29-12.3h6l-3.1-17zM66.83 10h1.69q5.81 0 5.81 5.58v22.16H67.9V16.53a1.64 1.64 0 00-.34-1.21 1.87 1.87 0 00-1.23-.32h-1.7q-1.75 0-1.75 1.86v20.88h-6.37V10h6.32v2.54q.79-2.54 4-2.54zM90 0h6.43v37.74h-6.3V35q-.68 2.76-4 2.76h-1.76q-5.75 0-5.75-5.58V15.57q0-5.58 5.75-5.58h1.75q3 0 3.89 2.37zm-3.43 32.77h1.69q1.75 0 1.75-1.86v-14a2.2 2.2 0 00-.4-1.49 1.8 1.8 0 00-1.35-.42h-1.69a1.87 1.87 0 00-1.24.31 1.64 1.64 0 00-.33 1.16v14.78a1.64 1.64 0 00.34 1.21 1.86 1.86 0 001.23.31zM112.52 9.93h1v5.53h-2.37q-3.55 0-3.55 4.06v18.22h-6.37V10h6.32v3.55a4.94 4.94 0 011.75-2.65 5.06 5.06 0 013.22-.97zM122.11 10h6q6.09 0 6.09 5.58v10.1h-12v5.7a1.74 1.74 0 00.31 1.21 1.85 1.85 0 001.27.31h2.59a1.86 1.86 0 001.24-.31 1.64 1.64 0 00.34-1.21v-2.05h6.2v2.82q0 5.58-6.15 5.58h-5.87q-6.15 0-6.15-5.58V15.62Q116 10 122.11 10zm.06 11.56H128V16.3a1.64 1.64 0 00-.34-1.21 1.87 1.87 0 00-1.24-.31h-2.71a1.87 1.87 0 00-1.24.31 1.64 1.64 0 00-.34 1.21zM162.55 10h6l-5.42 27.7h-7.5l-3.33-19.57-3.3 19.61h-7.5L136.21 10h6l3.21 21.6L149 10h6.71l3.38 21.55z"
    fill="currentColor"
  ></path>
  <path
    d="M27.9 85.94h19.83v10.38h-33.4V24H27.9zM65.43 40.5h12.51q12.75 0 12.75 11.68v21.13H65.55v9.79a3.64 3.64 0 00.65 2.54 3.87 3.87 0 002.66.65h5.43a3.9 3.9 0 002.6-.65 3.43 3.43 0 00.71-2.54v-4.36h13v5.9q0 11.68-12.86 11.68H65.43q-12.86 0-12.86-11.68V52.18q0-11.68 12.86-11.68zm.12 24.19h12.27V53.6a3.43 3.43 0 00-.71-2.54 3.91 3.91 0 00-2.6-.65h-5.66a3.9 3.9 0 00-2.6.65 3.43 3.43 0 00-.71 2.54zM111.69 40.5h12.51q12.75 0 12.75 11.68v21.13h-25.14v9.79a3.64 3.64 0 00.65 2.54 3.87 3.87 0 002.66.65h5.43a3.9 3.9 0 002.6-.65 3.43 3.43 0 00.71-2.54v-4.36h13v5.9q0 11.68-12.86 11.68h-12.31q-12.86 0-12.86-11.68V52.18q0-11.68 12.86-11.68zm.12 24.19h12.27V53.6a3.43 3.43 0 00-.71-2.54 3.91 3.91 0 00-2.6-.65h-5.67a3.9 3.9 0 00-2.6.65 3.43 3.43 0 00-.71 2.54zM168.7 24h13.45v72.32h-13.22v-5.78q-1.42 5.78-8.38 5.78h-3.66q-12 0-12-11.68V52.07q0-11.68 12-11.68h3.66q6.37 0 8.14 5zm-7.2 62h3.5q3.66 0 3.66-3.89V54.78a4.6 4.6 0 00-.83-3.13 3.76 3.76 0 00-2.83-.89h-3.5a3.9 3.9 0 00-2.6.65 3.43 3.43 0 00-.71 2.54v28.8a3.43 3.43 0 00.71 2.54 3.9 3.9 0 002.6.65zM213.78 40.5h3.54q12.15 0 12.16 11.68v44.14H216V54.07a3.43 3.43 0 00-.71-2.54 3.91 3.91 0 00-2.6-.65h-3.54q-3.66 0-3.66 3.9v41.54h-13.31V24h13.34v21.46q1.77-4.96 8.26-4.96zM262.52 40.5h13.22v55.82h-13.46v-5q-1.77 5-8.14 5h-3.66q-12 0-12-11.68V52.18q0-11.68 12-11.68h3.66q7 0 8.38 5.66zm-7.43 45.44h3.54q3.66 0 3.66-3.89V54.78q0-3.9-3.66-3.9h-3.54a3.9 3.9 0 00-2.6.65 3.43 3.43 0 00-.71 2.54v28.68a3.43 3.43 0 00.71 2.54 3.9 3.9 0 002.59.65zM331.2 40.5h3.66q12 0 12 11.68v44.14h-13.3V54.07a3.43 3.43 0 00-.71-2.54 3.91 3.91 0 00-2.6-.65h-3.54q-3.66 0-3.66 3.9v41.54h-13.44V54.07a3.43 3.43 0 00-.71-2.54 3.91 3.91 0 00-2.6-.65h-3.54q-3.66 0-3.66 3.9v41.54h-13.33V40.5H299v5.31q1.65-5.31 8.38-5.31h3.54q8.73 0 11.09 5.9 1.64-5.9 9.19-5.9z"
    fill="currentColor"
  ></path>
</svg>
